<svg xmlns="http://www.w3.org/2000/svg" version="1.1" xmlns:xlink="http://www.w3.org/1999/xlink" width="512" height="512" x="0" y="0" viewBox="0 0 152 152" style="enable-background:new 0 0 512 512" xml:space="preserve" class=""><g><path d="m97.2 76.7 43.8 27.7V47.8zM11 47.8v56.6l43.8-27.7zM132.9 31.3H19.1c-4 0-7.3 3-7.9 6.9L76 80.9l64.8-42.7c-.6-3.9-4-6.9-7.9-6.9zM89.7 81.6l-11.5 7.6c-.7.4-1.4.7-2.2.7s-1.6-.2-2.2-.7l-11.5-7.6-51 32.3c.6 3.9 3.9 6.8 7.9 6.9H133c4 0 7.3-2.9 7.9-6.9z" fill="#000000" opacity="1" data-original="#000000" class=""></path></g></svg>